# xmcd
#
# Track frame offsets:
#	150
#	16200
#	31933
#	48286
#	59860
#	77751
#	94646
#	116767
#	135798
#	149419
#	164194
#	180433
#	192789
#	206866
#	221213
#	237259
#	255056
#	269788
#	285361
#
# Disc length: 4034 seconds
#
# Revision: 1
# Processed by: cddbd v1.5.2PL0 Copyright (c) Steve Scherf et al.
# Submitted via: audiograbber 1.82.02
#
DISCID=160fc013
DTITLE=Various Artist  - Country Radio - September 2013
DYEAR=2013
DGENRE=Country
TTITLE0=Brad Paisley - Beat This Summer (Acoustic Mix)
TTITLE1=Jake Owen - Anywhere With You (Summer Mix)
TTITLE2=Taylor Swift - Red
TTITLE3=Rachele Lynae - Fishin' For Something
TTITLE4=Johnny Patton - Piggy Back Ride
TTITLE5=Henningsens - I Miss You
TTITLE6=Blackberry Smoke - Ain't Much Left Of Me
TTITLE7=Tim McGraw - Southern Girl
TTITLE8=Kix Brooks  - There's The Sun (Album Ver)
TTITLE9=Craig Morgan - Wake Up Lovin' You
TTITLE10=Eli Young Band - Drunk Last Night
TTITLE11=Kelly Clarkson - Tie It Up (Single Edit)
TTITLE12=Darius Rucker - Radio (Rmx)
TTITLE13=Lisa Matassa - I Won't Ask
TTITLE14=Colt Ford (Ft. Jason Aldean) - Drivin' Around Song
TTITLE15=Blake Shelton - Mine Would Be You
TTITLE16=Josh Thompson - Cold Beer With Your Name On It
TTITLE17=Danielle Bradberry - Heart Of Dixie, The
TTITLE18=Frankie Ballard - Helluva Life
EXTD=
EXTT0=
EXTT1=
EXTT2=
EXTT3=
EXTT4=
EXTT5=
EXTT6=
EXTT7=
EXTT8=
EXTT9=
EXTT10=
EXTT11=
EXTT12=
EXTT13=
EXTT14=
EXTT15=
EXTT16=
EXTT17=
EXTT18=
PLAYORDER=
